<svg width="500" height="500" fill="none" xmlns="http://www.w3.org/2000/svg"><g filter="url(#filter0_d)"><path d="M214.9 209.15V230h-3.42v-9.12h-9.81V230h-3.42v-20.85h3.42v8.94h9.81v-8.94h3.42zm19.652 12.18c0 .62-.04 1.18-.12 1.68h-12.63c.1 1.32.59 2.38 1.47 3.18.88.8 1.96 1.2 3.24 1.2 1.84 0 3.14-.77 3.9-2.31h3.69c-.5 1.52-1.41 2.77-2.73 3.75-1.3.96-2.92 1.44-4.86 1.44-1.58 0-3-.35-4.26-1.05a7.847 7.847 0 01-2.94-3c-.7-1.3-1.05-2.8-1.05-4.5 0-1.7.34-3.19 1.02-4.47.7-1.3 1.67-2.3 2.91-3 1.26-.7 2.7-1.05 4.32-1.05 1.56 0 2.95.34 4.17 1.02 1.22.68 2.17 1.64 2.85 2.88.68 1.22 1.02 2.63 1.02 4.23zm-3.57-1.08c-.02-1.26-.47-2.27-1.35-3.03-.88-.76-1.97-1.14-3.27-1.14-1.18 0-2.19.38-3.03 1.14-.84.74-1.34 1.75-1.5 3.03h9.15zm21.816-6.78l-10.14 24.3h-3.54l3.36-8.04-6.51-16.26h3.81l4.65 12.6 4.83-12.6h3.54zm6.331 12.42l-3.63 8.28h-2.22l2.13-8.28h3.72zm14.201-16.74V230h-3.42v-20.85h3.42zm11.143 12.51c0-1.66.34-3.13 1.02-4.41.7-1.28 1.64-2.27 2.82-2.97 1.2-.72 2.52-1.08 3.96-1.08 1.3 0 2.43.26 3.39.78.98.5 1.76 1.13 2.34 1.89v-2.4h3.45V230h-3.45v-2.46c-.58.78-1.37 1.43-2.37 1.95s-2.14.78-3.42.78c-1.42 0-2.72-.36-3.9-1.08-1.18-.74-2.12-1.76-2.82-3.06-.68-1.32-1.02-2.81-1.02-4.47zm13.53.06c0-1.14-.24-2.13-.72-2.97-.46-.84-1.07-1.48-1.83-1.92-.76-.44-1.58-.66-2.46-.66-.88 0-1.7.22-2.46.66-.76.42-1.38 1.05-1.86 1.89-.46.82-.69 1.8-.69 2.94s.23 2.14.69 3c.48.86 1.1 1.52 1.86 1.98.78.44 1.6.66 2.46.66.88 0 1.7-.22 2.46-.66.76-.44 1.37-1.08 1.83-1.92.48-.86.72-1.86.72-3zm27.952-8.52c1.3 0 2.46.27 3.48.81 1.04.54 1.85 1.34 2.43 2.4.6 1.06.9 2.34.9 3.84V230h-3.39v-9.24c0-1.48-.37-2.61-1.11-3.39-.74-.8-1.75-1.2-3.03-1.2-1.28 0-2.3.4-3.06 1.2-.74.78-1.11 1.91-1.11 3.39V230h-3.39v-9.24c0-1.48-.37-2.61-1.11-3.39-.74-.8-1.75-1.2-3.03-1.2-1.28 0-2.3.4-3.06 1.2-.74.78-1.11 1.91-1.11 3.39V230h-3.42v-16.53h3.42v1.89c.56-.68 1.27-1.21 2.13-1.59.86-.38 1.78-.57 2.76-.57 1.32 0 2.5.28 3.54.84 1.04.56 1.84 1.37 2.4 2.43.5-1 1.28-1.79 2.34-2.37 1.06-.6 2.2-.9 3.42-.9zm17.815 8.46c0-1.66.34-3.13 1.02-4.41.7-1.28 1.64-2.27 2.82-2.97 1.2-.72 2.52-1.08 3.96-1.08 1.3 0 2.43.26 3.39.78.98.5 1.76 1.13 2.34 1.89v-2.4h3.45V230h-3.45v-2.46c-.58.78-1.37 1.43-2.37 1.95s-2.14.78-3.42.78c-1.42 0-2.72-.36-3.9-1.08-1.18-.74-2.12-1.76-2.82-3.06-.68-1.32-1.02-2.81-1.02-4.47zm13.53.06c0-1.14-.24-2.13-.72-2.97-.46-.84-1.07-1.48-1.83-1.92-.76-.44-1.58-.66-2.46-.66-.88 0-1.7.22-2.46.66-.76.42-1.38 1.05-1.86 1.89-.46.82-.69 1.8-.69 2.94s.23 2.14.69 3c.48.86 1.1 1.52 1.86 1.98.78.44 1.6.66 2.46.66.88 0 1.7-.22 2.46-.66.76-.44 1.37-1.08 1.83-1.92.48-.86.72-1.86.72-3zm14.332 5.22l4.68-13.47h3.63l-6.3 16.53h-4.08l-6.27-16.53h3.66l4.68 13.47zm9.755-5.28c0-1.66.34-3.13 1.02-4.41.7-1.28 1.64-2.27 2.82-2.97 1.2-.72 2.52-1.08 3.96-1.08 1.3 0 2.43.26 3.39.78.98.5 1.76 1.13 2.34 1.89v-2.4h3.45V230h-3.45v-2.46c-.58.78-1.37 1.43-2.37 1.95s-2.14.78-3.42.78c-1.42 0-2.72-.36-3.9-1.08-1.18-.74-2.12-1.76-2.82-3.06-.68-1.32-1.02-2.81-1.02-4.47zm13.53.06c0-1.14-.24-2.13-.72-2.97-.46-.84-1.07-1.48-1.83-1.92-.76-.44-1.58-.66-2.46-.66-.88 0-1.7.22-2.46.66-.76.42-1.38 1.05-1.86 1.89-.46.82-.69 1.8-.69 2.94s.23 2.14.69 3c.48.86 1.1 1.52 1.86 1.98.78.44 1.6.66 2.46.66.88 0 1.7-.22 2.46-.66.76-.44 1.37-1.08 1.83-1.92.48-.86.72-1.86.72-3zm9.682-10.44c-.62 0-1.14-.21-1.56-.63-.42-.42-.63-.94-.63-1.56 0-.62.21-1.14.63-1.56.42-.42.94-.63 1.56-.63.6 0 1.11.21 1.53.63.42.42.63.94.63 1.56 0 .62-.21 1.14-.63 1.56-.42.42-.93.63-1.53.63zm1.68 2.19V230h-3.42v-16.53h3.42zm7.911-5.67V230h-3.42v-22.2h3.42zm3.35 13.86c0-1.66.34-3.13 1.02-4.41.7-1.28 1.64-2.27 2.82-2.97 1.2-.72 2.52-1.08 3.96-1.08 1.3 0 2.43.26 3.39.78.98.5 1.76 1.13 2.34 1.89v-2.4h3.45V230h-3.45v-2.46c-.58.78-1.37 1.43-2.37 1.95s-2.14.78-3.42.78c-1.42 0-2.72-.36-3.9-1.08-1.18-.74-2.12-1.76-2.82-3.06-.68-1.32-1.02-2.81-1.02-4.47zm13.53.06c0-1.14-.24-2.13-.72-2.97-.46-.84-1.07-1.48-1.83-1.92-.76-.44-1.58-.66-2.46-.66-.88 0-1.7.22-2.46.66-.76.42-1.38 1.05-1.86 1.89-.46.82-.69 1.8-.69 2.94s.23 2.14.69 3c.48.86 1.1 1.52 1.86 1.98.78.44 1.6.66 2.46.66.88 0 1.7-.22 2.46-.66.76-.44 1.37-1.08 1.83-1.92.48-.86.72-1.86.72-3zm11.362-5.79c.58-.8 1.37-1.45 2.37-1.95 1.02-.52 2.15-.78 3.39-.78 1.46 0 2.78.35 3.96 1.05 1.18.7 2.11 1.7 2.79 3 .68 1.28 1.02 2.75 1.02 4.41 0 1.66-.34 3.15-1.02 4.47-.68 1.3-1.62 2.32-2.82 3.06-1.18.72-2.49 1.08-3.93 1.08-1.28 0-2.42-.25-3.42-.75-.98-.5-1.76-1.14-2.34-1.92v2.4h-3.42v-22.2h3.42v8.13zm10.05 5.73c0-1.14-.24-2.12-.72-2.94-.46-.84-1.08-1.47-1.86-1.89-.76-.44-1.58-.66-2.46-.66-.86 0-1.68.22-2.46.66-.76.44-1.38 1.08-1.86 1.92-.46.84-.69 1.83-.69 2.97 0 1.14.23 2.14.69 3 .48.84 1.1 1.48 1.86 1.92.78.44 1.6.66 2.46.66.88 0 1.7-.22 2.46-.66.78-.46 1.4-1.12 1.86-1.98.48-.86.72-1.86.72-3zm10.282-13.86V230h-3.42v-22.2h3.42zm19.64 13.53c0 .62-.04 1.18-.12 1.68h-12.63c.1 1.32.59 2.38 1.47 3.18.88.8 1.96 1.2 3.24 1.2 1.84 0 3.14-.77 3.9-2.31h3.69c-.5 1.52-1.41 2.77-2.73 3.75-1.3.96-2.92 1.44-4.86 1.44-1.58 0-3-.35-4.26-1.05a7.847 7.847 0 01-2.94-3c-.7-1.3-1.05-2.8-1.05-4.5 0-1.7.34-3.19 1.02-4.47.7-1.3 1.67-2.3 2.91-3 1.26-.7 2.7-1.05 4.32-1.05 1.56 0 2.95.34 4.17 1.02 1.22.68 2.17 1.64 2.85 2.88.68 1.22 1.02 2.63 1.02 4.23zm-3.57-1.08c-.02-1.26-.47-2.27-1.35-3.03-.88-.76-1.97-1.14-3.27-1.14-1.18 0-2.19.38-3.03 1.14-.84.74-1.34 1.75-1.5 3.03h9.15z" fill="#2A2524"/></g><g filter="url(#filter1_d)"><path d="M278.25 269.6V305h-11.1v-13.8H256.6V305h-11.1v-35.4h11.1v12.75h10.55V269.6h11.1zm10.594 4.95c-1.933 0-3.483-.517-4.65-1.55-1.167-1.033-1.75-2.333-1.75-3.9 0-1.6.583-2.917 1.75-3.95 1.167-1.067 2.717-1.6 4.65-1.6 1.9 0 3.433.533 4.6 1.6 1.167 1.033 1.75 2.35 1.75 3.95 0 1.567-.583 2.867-1.75 3.9s-2.7 1.55-4.6 1.55zm5.5 2.25V305h-11.1v-28.2h11.1zm16.113 5.2c1.134-1.633 2.517-2.933 4.15-3.9 1.634-1 3.334-1.5 5.1-1.5v11.85h-3.15c-2.1 0-3.65.367-4.65 1.1-.966.733-1.45 2.033-1.45 3.9V305h-11.1v-28.2h11.1v5.2zm39.54 8.65c0 .767-.05 1.5-.15 2.2h-17.85c.167 2.433 1.184 3.65 3.05 3.65 1.2 0 2.067-.55 2.6-1.65h11.75c-.4 2-1.25 3.8-2.55 5.4-1.266 1.567-2.883 2.817-4.85 3.75-1.933.9-4.066 1.35-6.4 1.35-2.8 0-5.3-.583-7.5-1.75-2.166-1.167-3.866-2.833-5.1-5-1.2-2.2-1.8-4.767-1.8-7.7s.6-5.483 1.8-7.65c1.234-2.2 2.934-3.883 5.1-5.05 2.2-1.167 4.7-1.75 7.5-1.75s5.284.583 7.45 1.75c2.2 1.133 3.9 2.767 5.1 4.9 1.234 2.133 1.85 4.65 1.85 7.55zm-11.25-2.65c0-.933-.3-1.633-.9-2.1-.6-.5-1.35-.75-2.25-.75-1.966 0-3.116.95-3.45 2.85h6.6zm65.807-18.4V305h-11.05v-17.65l-5.45 17.65h-9.5l-5.45-17.65V305h-11.1v-35.4h13.6l7.8 21.25 7.6-21.25h13.55zm32.309 21.05c0 .767-.05 1.5-.15 2.2h-17.85c.166 2.433 1.183 3.65 3.05 3.65 1.2 0 2.066-.55 2.6-1.65h11.75c-.4 2-1.25 3.8-2.55 5.4-1.267 1.567-2.884 2.817-4.85 3.75-1.934.9-4.067 1.35-6.4 1.35-2.8 0-5.3-.583-7.5-1.75-2.167-1.167-3.867-2.833-5.1-5-1.2-2.2-1.8-4.767-1.8-7.7s.6-5.483 1.8-7.65c1.233-2.2 2.933-3.883 5.1-5.05 2.2-1.167 4.7-1.75 7.5-1.75s5.283.583 7.45 1.75c2.2 1.133 3.9 2.767 5.1 4.9 1.233 2.133 1.85 4.65 1.85 7.55zm-11.25-2.65c0-.933-.3-1.633-.9-2.1-.6-.5-1.35-.75-2.25-.75-1.967 0-3.117.95-3.45 2.85h6.6z" fill="#2A2524"/></g><defs><filter id="filter0_d" x="194.25" y="206.9" width="292.154" height="38.87" filterUnits="userSpaceOnUse" color-interpolation-filters="sRGB"><feFlood flood-opacity="0" result="BackgroundImageFix"/><feColorMatrix in="SourceAlpha" values="0 0 0 0 0 0 0 0 0 0 0 0 0 0 0 0 0 0 127 0"/><feOffset dy="4"/><feGaussianBlur stdDeviation="2"/><feColorMatrix values="0 0 0 0 0 0 0 0 0 0 0 0 0 0 0 0 0 0 0.25 0"/><feBlend in2="BackgroundImageFix" result="effect1_dropShadow"/><feBlend in="SourceGraphic" in2="effect1_dropShadow" result="shape"/></filter><filter id="filter1_d" x="241.5" y="263.55" width="199.363" height="49.8" filterUnits="userSpaceOnUse" color-interpolation-filters="sRGB"><feFlood flood-opacity="0" result="BackgroundImageFix"/><feColorMatrix in="SourceAlpha" values="0 0 0 0 0 0 0 0 0 0 0 0 0 0 0 0 0 0 127 0"/><feOffset dy="4"/><feGaussianBlur stdDeviation="2"/><feColorMatrix values="0 0 0 0 0 0 0 0 0 0 0 0 0 0 0 0 0 0 0.25 0"/><feBlend in2="BackgroundImageFix" result="effect1_dropShadow"/><feBlend in="SourceGraphic" in2="effect1_dropShadow" result="shape"/></filter></defs></svg>